<?xml version="1.0" encoding="iso-8859-1"?>
<svg version="1.1" id="Layer_1" xmlns="http://www.w3.org/2000/svg" xmlns:xlink="http://www.w3.org/1999/xlink" x="0px" y="0px"
	 viewBox="0 0 512 512" style="enable-background:new 0 0 512 512;" xml:space="preserve" fill="gray">
<g>
	<path d="M256.001,0C114.841,0,0,114.841,0,256.001C0,397.159,114.841,512,256.001,512C397.159,512,512,397.159,512,256.001
		C512,114.841,397.159,0,256.001,0z M256.001,493.701c-131.069,0-237.702-106.631-237.702-237.7S124.932,18.299,256.001,18.299
		c131.068,0,237.7,106.632,237.7,237.702C493.701,387.068,387.068,493.701,256.001,493.701z"/>
</g>
<g>
	<path d="M370.616,254.111c-3.572-3.573-9.365-3.573-12.939,0c-56.066,56.065-147.291,56.066-203.357,0
		c-3.572-3.573-9.365-3.573-12.939,0c-3.573,3.573-3.573,9.365,0,12.939c31.6,31.6,73.109,47.401,114.617,47.401
		c41.51,0,83.018-15.801,114.617-47.401C374.19,263.476,374.19,257.684,370.616,254.111z"/>
</g>
<g>
	<path d="M139.449,130.668c-34.648,0-62.834,28.188-62.834,62.834c0,5.053,4.097,9.15,9.15,9.15s9.15-4.097,9.15-9.15
		c0-24.557,19.978-44.535,44.535-44.535c24.557,0,44.535,19.979,44.535,44.535c0,5.053,4.097,9.15,9.15,9.15s9.15-4.097,9.15-9.15
		C202.283,158.854,174.096,130.668,139.449,130.668z"/>
</g>
<g>
	<path d="M372.551,130.668c-34.648,0-62.834,28.188-62.834,62.834c0,5.053,4.097,9.15,9.15,9.15c5.053,0,9.15-4.097,9.15-9.15
		c0-24.557,19.978-44.535,44.535-44.535s44.535,19.979,44.535,44.535c0,5.053,4.097,9.15,9.15,9.15s9.15-4.097,9.15-9.15
		C435.385,158.854,407.199,130.668,372.551,130.668z"/>
</g>
</svg>
